<mxfile host="app.diagrams.net" modified="2023-03-05T08:47:04.144Z" agent="5.0 (X11)" etag="EUU50lMquV32BEOMT_5P" version="21.0.2" type="github">
  <diagram name="Page-1" id="M6wSjgtkwalULBn_OeCC">
    <mxGraphModel dx="1728" dy="948" grid="1" gridSize="10" guides="1" tooltips="1" connect="1" arrows="1" fold="1" page="1" pageScale="1" pageWidth="850" pageHeight="1100" math="0" shadow="0">
      <root>
        <mxCell id="0" />
        <mxCell id="1" parent="0" />
        <mxCell id="wht58hyC4nLkEoGdwxGO-3" value="" style="edgeStyle=orthogonalEdgeStyle;rounded=0;orthogonalLoop=1;jettySize=auto;html=1;" edge="1" parent="1" source="wht58hyC4nLkEoGdwxGO-1" target="wht58hyC4nLkEoGdwxGO-4">
          <mxGeometry relative="1" as="geometry">
            <mxPoint x="343" y="550" as="targetPoint" />
            <Array as="points">
              <mxPoint x="240" y="500" />
              <mxPoint x="240" y="500" />
            </Array>
          </mxGeometry>
        </mxCell>
        <mxCell id="wht58hyC4nLkEoGdwxGO-18" style="edgeStyle=orthogonalEdgeStyle;rounded=0;orthogonalLoop=1;jettySize=auto;html=1;entryX=0;entryY=0.5;entryDx=0;entryDy=0;" edge="1" parent="1" source="wht58hyC4nLkEoGdwxGO-1" target="wht58hyC4nLkEoGdwxGO-17">
          <mxGeometry relative="1" as="geometry" />
        </mxCell>
        <mxCell id="wht58hyC4nLkEoGdwxGO-40" style="edgeStyle=orthogonalEdgeStyle;rounded=0;orthogonalLoop=1;jettySize=auto;html=1;exitX=0.75;exitY=1;exitDx=0;exitDy=0;entryX=0;entryY=0;entryDx=0;entryDy=27.5;entryPerimeter=0;" edge="1" parent="1" source="wht58hyC4nLkEoGdwxGO-1" target="wht58hyC4nLkEoGdwxGO-19">
          <mxGeometry relative="1" as="geometry">
            <Array as="points">
              <mxPoint x="300" y="450" />
              <mxPoint x="300" y="688" />
            </Array>
          </mxGeometry>
        </mxCell>
        <mxCell id="wht58hyC4nLkEoGdwxGO-1" value="Client-Side (Chat)" style="rounded=0;whiteSpace=wrap;html=1;" vertex="1" parent="1">
          <mxGeometry x="165" y="390" width="150" height="60" as="geometry" />
        </mxCell>
        <mxCell id="wht58hyC4nLkEoGdwxGO-21" style="edgeStyle=orthogonalEdgeStyle;rounded=0;orthogonalLoop=1;jettySize=auto;html=1;entryX=0;entryY=0.5;entryDx=0;entryDy=0;entryPerimeter=0;" edge="1" parent="1" source="wht58hyC4nLkEoGdwxGO-4" target="wht58hyC4nLkEoGdwxGO-19">
          <mxGeometry relative="1" as="geometry">
            <Array as="points">
              <mxPoint x="240" y="700" />
            </Array>
          </mxGeometry>
        </mxCell>
        <mxCell id="wht58hyC4nLkEoGdwxGO-34" style="edgeStyle=orthogonalEdgeStyle;rounded=0;orthogonalLoop=1;jettySize=auto;html=1;exitX=0.5;exitY=1;exitDx=0;exitDy=0;entryX=0.564;entryY=0;entryDx=0;entryDy=0;entryPerimeter=0;" edge="1" parent="1" source="wht58hyC4nLkEoGdwxGO-4">
          <mxGeometry relative="1" as="geometry">
            <mxPoint x="240.18000000000006" y="880" as="targetPoint" />
          </mxGeometry>
        </mxCell>
        <mxCell id="wht58hyC4nLkEoGdwxGO-4" value="Authorization Check Code" style="ellipse;whiteSpace=wrap;html=1;" vertex="1" parent="1">
          <mxGeometry x="187.5" y="560" width="105" height="60" as="geometry" />
        </mxCell>
        <mxCell id="wht58hyC4nLkEoGdwxGO-6" value="Invoice Database" style="shape=cylinder3;whiteSpace=wrap;html=1;boundedLbl=1;backgroundOutline=1;size=15;" vertex="1" parent="1">
          <mxGeometry x="410" y="660" width="60" height="80" as="geometry" />
        </mxCell>
        <mxCell id="wht58hyC4nLkEoGdwxGO-13" style="edgeStyle=orthogonalEdgeStyle;rounded=0;orthogonalLoop=1;jettySize=auto;html=1;entryX=1;entryY=0.5;entryDx=0;entryDy=0;entryPerimeter=0;" edge="1" parent="1" target="wht58hyC4nLkEoGdwxGO-6">
          <mxGeometry relative="1" as="geometry">
            <mxPoint x="575" y="450" as="sourcePoint" />
            <Array as="points">
              <mxPoint x="570" y="450" />
              <mxPoint x="570" y="700" />
            </Array>
          </mxGeometry>
        </mxCell>
        <mxCell id="wht58hyC4nLkEoGdwxGO-36" style="edgeStyle=orthogonalEdgeStyle;rounded=0;orthogonalLoop=1;jettySize=auto;html=1;exitX=0;exitY=1;exitDx=0;exitDy=0;entryX=0.5;entryY=0;entryDx=0;entryDy=0;entryPerimeter=0;" edge="1" parent="1" source="wht58hyC4nLkEoGdwxGO-17" target="wht58hyC4nLkEoGdwxGO-19">
          <mxGeometry relative="1" as="geometry" />
        </mxCell>
        <mxCell id="wht58hyC4nLkEoGdwxGO-17" value="Ukassa payment processing" style="ellipse;whiteSpace=wrap;html=1;" vertex="1" parent="1">
          <mxGeometry x="490" y="380" width="160" height="80" as="geometry" />
        </mxCell>
        <mxCell id="wht58hyC4nLkEoGdwxGO-19" value="User Database" style="shape=cylinder3;whiteSpace=wrap;html=1;boundedLbl=1;backgroundOutline=1;size=15;" vertex="1" parent="1">
          <mxGeometry x="310" y="660" width="60" height="80" as="geometry" />
        </mxCell>
        <mxCell id="wht58hyC4nLkEoGdwxGO-26" value="" style="endArrow=none;dashed=1;html=1;dashPattern=1 3;strokeWidth=2;rounded=0;exitX=1;exitY=0.5;exitDx=0;exitDy=0;exitPerimeter=0;entryX=0;entryY=0.5;entryDx=0;entryDy=0;entryPerimeter=0;" edge="1" parent="1" source="wht58hyC4nLkEoGdwxGO-19" target="wht58hyC4nLkEoGdwxGO-6">
          <mxGeometry width="50" height="50" relative="1" as="geometry">
            <mxPoint x="350" y="740" as="sourcePoint" />
            <mxPoint x="400" y="700" as="targetPoint" />
          </mxGeometry>
        </mxCell>
        <mxCell id="wht58hyC4nLkEoGdwxGO-39" style="edgeStyle=orthogonalEdgeStyle;rounded=0;orthogonalLoop=1;jettySize=auto;html=1;exitX=0;exitY=0.5;exitDx=0;exitDy=0;entryX=0;entryY=0.5;entryDx=0;entryDy=0;" edge="1" parent="1" source="wht58hyC4nLkEoGdwxGO-35" target="wht58hyC4nLkEoGdwxGO-1">
          <mxGeometry relative="1" as="geometry" />
        </mxCell>
        <mxCell id="wht58hyC4nLkEoGdwxGO-35" value="OpenAI API" style="ellipse;whiteSpace=wrap;html=1;" vertex="1" parent="1">
          <mxGeometry x="180" y="880" width="120" height="80" as="geometry" />
        </mxCell>
      </root>
    </mxGraphModel>
  </diagram>
</mxfile>
